<mxfile host="app.diagrams.net" agent="Mozilla/5.0 (Windows NT 10.0; Win64; x64) AppleWebKit/537.36 (KHTML, like Gecko) Chrome/131.0.0.0 Safari/537.36 Edg/131.0.0.0" version="25.0.3">
  <diagram id="C5RBs43oDa-KdzZeNtuy" name="Page-1">
    <mxGraphModel dx="1853" dy="561" grid="1" gridSize="10" guides="1" tooltips="1" connect="1" arrows="1" fold="1" page="1" pageScale="1" pageWidth="827" pageHeight="1169" math="0" shadow="0">
      <root>
        <mxCell id="WIyWlLk6GJQsqaUBKTNV-0" />
        <mxCell id="WIyWlLk6GJQsqaUBKTNV-1" parent="WIyWlLk6GJQsqaUBKTNV-0" />
        <mxCell id="mvioNwK95yMqdUQ73LqQ-36" value="" style="swimlane;fontFamily=Sarabun;fontSource=https%3A%2F%2Ffonts.googleapis.com%2Fcss%3Ffamily%3DSarabun;" parent="WIyWlLk6GJQsqaUBKTNV-1" vertex="1">
          <mxGeometry x="-740" y="60" width="640" height="2980" as="geometry" />
        </mxCell>
        <mxCell id="xE9lvKekpY_54vqVYkne-0" style="edgeStyle=orthogonalEdgeStyle;rounded=0;orthogonalLoop=1;jettySize=auto;html=1;entryX=0.5;entryY=0;entryDx=0;entryDy=0;" parent="mvioNwK95yMqdUQ73LqQ-36" source="mvioNwK95yMqdUQ73LqQ-35" edge="1" target="qBdUKp69-ClIljfC2VET-1">
          <mxGeometry relative="1" as="geometry">
            <mxPoint x="320" y="160" as="targetPoint" />
          </mxGeometry>
        </mxCell>
        <mxCell id="mvioNwK95yMqdUQ73LqQ-35" value="&lt;font data-font-src=&quot;https://fonts.googleapis.com/css?family=Sarabun&quot; face=&quot;Sarabun&quot;&gt;Start&lt;/font&gt;" style="ellipse;whiteSpace=wrap;html=1;" parent="mvioNwK95yMqdUQ73LqQ-36" vertex="1">
          <mxGeometry x="255" y="30" width="130" height="30" as="geometry" />
        </mxCell>
        <mxCell id="xE9lvKekpY_54vqVYkne-7" style="edgeStyle=orthogonalEdgeStyle;rounded=0;orthogonalLoop=1;jettySize=auto;html=1;" parent="mvioNwK95yMqdUQ73LqQ-36" source="xE9lvKekpY_54vqVYkne-6" edge="1">
          <mxGeometry relative="1" as="geometry">
            <mxPoint x="555" y="110" as="targetPoint" />
          </mxGeometry>
        </mxCell>
        <mxCell id="xE9lvKekpY_54vqVYkne-6" value="&lt;font data-font-src=&quot;https://fonts.googleapis.com/css?family=Sarabun&quot; face=&quot;Sarabun&quot;&gt;struct Employee&lt;/font&gt;" style="ellipse;whiteSpace=wrap;html=1;" parent="mvioNwK95yMqdUQ73LqQ-36" vertex="1">
          <mxGeometry x="490" y="40" width="130" height="30" as="geometry" />
        </mxCell>
        <mxCell id="xE9lvKekpY_54vqVYkne-9" style="edgeStyle=orthogonalEdgeStyle;rounded=0;orthogonalLoop=1;jettySize=auto;html=1;" parent="mvioNwK95yMqdUQ73LqQ-36" source="xE9lvKekpY_54vqVYkne-8" edge="1">
          <mxGeometry relative="1" as="geometry">
            <mxPoint x="555" y="200" as="targetPoint" />
          </mxGeometry>
        </mxCell>
        <mxCell id="xE9lvKekpY_54vqVYkne-8" value="Name&lt;div&gt;salary&lt;/div&gt;&lt;div&gt;work duration&lt;/div&gt;&lt;div&gt;year exp&lt;/div&gt;" style="rounded=0;whiteSpace=wrap;html=1;" parent="mvioNwK95yMqdUQ73LqQ-36" vertex="1">
          <mxGeometry x="495" y="110" width="120" height="60" as="geometry" />
        </mxCell>
        <mxCell id="xE9lvKekpY_54vqVYkne-10" value="&lt;font face=&quot;Sarabun&quot;&gt;Return&lt;/font&gt;" style="ellipse;whiteSpace=wrap;html=1;" parent="mvioNwK95yMqdUQ73LqQ-36" vertex="1">
          <mxGeometry x="490" y="200" width="130" height="30" as="geometry" />
        </mxCell>
        <mxCell id="qBdUKp69-ClIljfC2VET-4" style="edgeStyle=orthogonalEdgeStyle;rounded=0;orthogonalLoop=1;jettySize=auto;html=1;" edge="1" parent="mvioNwK95yMqdUQ73LqQ-36" source="qBdUKp69-ClIljfC2VET-1">
          <mxGeometry relative="1" as="geometry">
            <mxPoint x="320" y="290" as="targetPoint" />
          </mxGeometry>
        </mxCell>
        <mxCell id="qBdUKp69-ClIljfC2VET-1" value="Do you want to Enter Employee Information? (y/n)" style="shape=parallelogram;perimeter=parallelogramPerimeter;whiteSpace=wrap;html=1;fixedSize=1;" vertex="1" parent="mvioNwK95yMqdUQ73LqQ-36">
          <mxGeometry x="242.5" y="170" width="155" height="60" as="geometry" />
        </mxCell>
        <mxCell id="qBdUKp69-ClIljfC2VET-6" style="edgeStyle=orthogonalEdgeStyle;rounded=0;orthogonalLoop=1;jettySize=auto;html=1;" edge="1" parent="mvioNwK95yMqdUQ73LqQ-36" source="qBdUKp69-ClIljfC2VET-5">
          <mxGeometry relative="1" as="geometry">
            <mxPoint x="320" y="460" as="targetPoint" />
          </mxGeometry>
        </mxCell>
        <mxCell id="qBdUKp69-ClIljfC2VET-5" value="Read y/n" style="shape=parallelogram;perimeter=parallelogramPerimeter;whiteSpace=wrap;html=1;fixedSize=1;" vertex="1" parent="mvioNwK95yMqdUQ73LqQ-36">
          <mxGeometry x="260" y="290" width="120" height="60" as="geometry" />
        </mxCell>
        <mxCell id="qBdUKp69-ClIljfC2VET-9" style="edgeStyle=orthogonalEdgeStyle;rounded=0;orthogonalLoop=1;jettySize=auto;html=1;" edge="1" parent="mvioNwK95yMqdUQ73LqQ-36" source="qBdUKp69-ClIljfC2VET-7">
          <mxGeometry relative="1" as="geometry">
            <mxPoint x="320" y="660" as="targetPoint" />
          </mxGeometry>
        </mxCell>
        <mxCell id="qBdUKp69-ClIljfC2VET-31" style="edgeStyle=orthogonalEdgeStyle;rounded=0;orthogonalLoop=1;jettySize=auto;html=1;" edge="1" parent="mvioNwK95yMqdUQ73LqQ-36" source="qBdUKp69-ClIljfC2VET-32">
          <mxGeometry relative="1" as="geometry">
            <mxPoint x="60" y="510" as="targetPoint" />
          </mxGeometry>
        </mxCell>
        <mxCell id="qBdUKp69-ClIljfC2VET-7" value="user input&lt;div&gt;= y ?&lt;/div&gt;" style="rhombus;whiteSpace=wrap;html=1;" vertex="1" parent="mvioNwK95yMqdUQ73LqQ-36">
          <mxGeometry x="265" y="450" width="110" height="120" as="geometry" />
        </mxCell>
        <mxCell id="qBdUKp69-ClIljfC2VET-10" value="Yes" style="text;html=1;align=center;verticalAlign=middle;resizable=0;points=[];autosize=1;strokeColor=none;fillColor=none;" vertex="1" parent="mvioNwK95yMqdUQ73LqQ-36">
          <mxGeometry x="250" y="570" width="40" height="30" as="geometry" />
        </mxCell>
        <mxCell id="qBdUKp69-ClIljfC2VET-12" style="edgeStyle=orthogonalEdgeStyle;rounded=0;orthogonalLoop=1;jettySize=auto;html=1;" edge="1" parent="mvioNwK95yMqdUQ73LqQ-36" source="qBdUKp69-ClIljfC2VET-11">
          <mxGeometry relative="1" as="geometry">
            <mxPoint x="320" y="800" as="targetPoint" />
          </mxGeometry>
        </mxCell>
        <mxCell id="qBdUKp69-ClIljfC2VET-11" value="Read&amp;nbsp;&lt;div&gt;&amp;nbsp;name&lt;div&gt;salary&lt;/div&gt;&lt;div&gt;work duration&lt;/div&gt;&lt;/div&gt;&lt;div&gt;store to struct employee&lt;/div&gt;" style="shape=parallelogram;perimeter=parallelogramPerimeter;whiteSpace=wrap;html=1;fixedSize=1;" vertex="1" parent="mvioNwK95yMqdUQ73LqQ-36">
          <mxGeometry x="240" y="660" width="160" height="80" as="geometry" />
        </mxCell>
        <mxCell id="qBdUKp69-ClIljfC2VET-14" value="index = 0&lt;div&gt;for next employee&lt;/div&gt;" style="rounded=0;whiteSpace=wrap;html=1;" vertex="1" parent="mvioNwK95yMqdUQ73LqQ-36">
          <mxGeometry x="260" y="80" width="120" height="60" as="geometry" />
        </mxCell>
        <mxCell id="qBdUKp69-ClIljfC2VET-16" style="edgeStyle=orthogonalEdgeStyle;rounded=0;orthogonalLoop=1;jettySize=auto;html=1;" edge="1" parent="mvioNwK95yMqdUQ73LqQ-36" source="qBdUKp69-ClIljfC2VET-15">
          <mxGeometry relative="1" as="geometry">
            <mxPoint x="320" y="940" as="targetPoint" />
          </mxGeometry>
        </mxCell>
        <mxCell id="qBdUKp69-ClIljfC2VET-15" value="store employees salary&lt;div&gt;store to valriable&lt;/div&gt;" style="rounded=0;whiteSpace=wrap;html=1;" vertex="1" parent="mvioNwK95yMqdUQ73LqQ-36">
          <mxGeometry x="260" y="800" width="120" height="60" as="geometry" />
        </mxCell>
        <mxCell id="qBdUKp69-ClIljfC2VET-18" style="edgeStyle=orthogonalEdgeStyle;rounded=0;orthogonalLoop=1;jettySize=auto;html=1;" edge="1" parent="mvioNwK95yMqdUQ73LqQ-36" source="qBdUKp69-ClIljfC2VET-17">
          <mxGeometry relative="1" as="geometry">
            <mxPoint x="320" y="1140" as="targetPoint" />
          </mxGeometry>
        </mxCell>
        <mxCell id="qBdUKp69-ClIljfC2VET-22" style="edgeStyle=orthogonalEdgeStyle;rounded=0;orthogonalLoop=1;jettySize=auto;html=1;" edge="1" parent="mvioNwK95yMqdUQ73LqQ-36" source="qBdUKp69-ClIljfC2VET-17">
          <mxGeometry relative="1" as="geometry">
            <mxPoint x="320" y="1260" as="targetPoint" />
            <Array as="points">
              <mxPoint x="440" y="1010" />
              <mxPoint x="440" y="1260" />
            </Array>
          </mxGeometry>
        </mxCell>
        <mxCell id="qBdUKp69-ClIljfC2VET-17" value="&lt;div&gt;work duration&lt;/div&gt;employees[index]&lt;div&gt;&lt;span style=&quot;background-color: initial;&quot;&gt;&amp;gt;&amp;nbsp;&lt;/span&gt;&lt;/div&gt;&lt;div&gt;&lt;span style=&quot;background-color: initial;&quot;&gt;variable for store?&lt;/span&gt;&lt;/div&gt;&lt;div&gt;&lt;/div&gt;" style="rhombus;whiteSpace=wrap;html=1;" vertex="1" parent="mvioNwK95yMqdUQ73LqQ-36">
          <mxGeometry x="245" y="940" width="150" height="140" as="geometry" />
        </mxCell>
        <mxCell id="qBdUKp69-ClIljfC2VET-20" style="edgeStyle=orthogonalEdgeStyle;rounded=0;orthogonalLoop=1;jettySize=auto;html=1;entryX=0.5;entryY=0;entryDx=0;entryDy=0;" edge="1" parent="mvioNwK95yMqdUQ73LqQ-36" source="qBdUKp69-ClIljfC2VET-19" target="qBdUKp69-ClIljfC2VET-21">
          <mxGeometry relative="1" as="geometry">
            <mxPoint x="320" y="1260" as="targetPoint" />
          </mxGeometry>
        </mxCell>
        <mxCell id="qBdUKp69-ClIljfC2VET-19" value="store work dutration of employees to variable&lt;div&gt;and salary&lt;/div&gt;" style="rounded=0;whiteSpace=wrap;html=1;" vertex="1" parent="mvioNwK95yMqdUQ73LqQ-36">
          <mxGeometry x="260" y="1140" width="120" height="60" as="geometry" />
        </mxCell>
        <mxCell id="qBdUKp69-ClIljfC2VET-29" style="edgeStyle=orthogonalEdgeStyle;rounded=0;orthogonalLoop=1;jettySize=auto;html=1;" edge="1" parent="mvioNwK95yMqdUQ73LqQ-36" source="qBdUKp69-ClIljfC2VET-21">
          <mxGeometry relative="1" as="geometry">
            <mxPoint x="320" y="1430" as="targetPoint" />
          </mxGeometry>
        </mxCell>
        <mxCell id="qBdUKp69-ClIljfC2VET-21" value="index + 1&lt;div&gt;for next person&lt;/div&gt;" style="rounded=0;whiteSpace=wrap;html=1;" vertex="1" parent="mvioNwK95yMqdUQ73LqQ-36">
          <mxGeometry x="260" y="1300" width="120" height="60" as="geometry" />
        </mxCell>
        <mxCell id="qBdUKp69-ClIljfC2VET-23" value="Yes" style="text;html=1;align=center;verticalAlign=middle;resizable=0;points=[];autosize=1;strokeColor=none;fillColor=none;" vertex="1" parent="mvioNwK95yMqdUQ73LqQ-36">
          <mxGeometry x="265" y="1070" width="40" height="30" as="geometry" />
        </mxCell>
        <mxCell id="qBdUKp69-ClIljfC2VET-26" value="No" style="text;html=1;align=center;verticalAlign=middle;resizable=0;points=[];autosize=1;strokeColor=none;fillColor=none;" vertex="1" parent="mvioNwK95yMqdUQ73LqQ-36">
          <mxGeometry x="380" y="970" width="40" height="30" as="geometry" />
        </mxCell>
        <mxCell id="qBdUKp69-ClIljfC2VET-27" value="No" style="text;html=1;align=center;verticalAlign=middle;resizable=0;points=[];autosize=1;strokeColor=none;fillColor=none;" vertex="1" parent="mvioNwK95yMqdUQ73LqQ-36">
          <mxGeometry x="230" y="460" width="40" height="30" as="geometry" />
        </mxCell>
        <mxCell id="qBdUKp69-ClIljfC2VET-30" style="edgeStyle=orthogonalEdgeStyle;rounded=0;orthogonalLoop=1;jettySize=auto;html=1;" edge="1" parent="mvioNwK95yMqdUQ73LqQ-36" source="qBdUKp69-ClIljfC2VET-28">
          <mxGeometry relative="1" as="geometry">
            <mxPoint x="320" y="160" as="targetPoint" />
            <Array as="points">
              <mxPoint x="60" y="1480" />
              <mxPoint x="60" y="160" />
            </Array>
          </mxGeometry>
        </mxCell>
        <mxCell id="qBdUKp69-ClIljfC2VET-35" style="edgeStyle=orthogonalEdgeStyle;rounded=0;orthogonalLoop=1;jettySize=auto;html=1;entryX=0.5;entryY=0;entryDx=0;entryDy=0;" edge="1" parent="mvioNwK95yMqdUQ73LqQ-36" source="qBdUKp69-ClIljfC2VET-28" target="qBdUKp69-ClIljfC2VET-34">
          <mxGeometry relative="1" as="geometry">
            <Array as="points">
              <mxPoint x="410" y="1480" />
              <mxPoint x="410" y="1620" />
            </Array>
          </mxGeometry>
        </mxCell>
        <mxCell id="qBdUKp69-ClIljfC2VET-28" value="userinput == y ?" style="rhombus;whiteSpace=wrap;html=1;" vertex="1" parent="mvioNwK95yMqdUQ73LqQ-36">
          <mxGeometry x="265" y="1430" width="110" height="100" as="geometry" />
        </mxCell>
        <mxCell id="qBdUKp69-ClIljfC2VET-32" value="Error Please enter y or n." style="shape=parallelogram;perimeter=parallelogramPerimeter;whiteSpace=wrap;html=1;fixedSize=1;" vertex="1" parent="mvioNwK95yMqdUQ73LqQ-36">
          <mxGeometry x="80" y="480" width="150" height="60" as="geometry" />
        </mxCell>
        <mxCell id="qBdUKp69-ClIljfC2VET-33" value="" style="edgeStyle=orthogonalEdgeStyle;rounded=0;orthogonalLoop=1;jettySize=auto;html=1;" edge="1" parent="mvioNwK95yMqdUQ73LqQ-36" source="qBdUKp69-ClIljfC2VET-7" target="qBdUKp69-ClIljfC2VET-32">
          <mxGeometry relative="1" as="geometry">
            <mxPoint x="-680" y="570" as="targetPoint" />
            <mxPoint x="-475" y="570" as="sourcePoint" />
          </mxGeometry>
        </mxCell>
        <mxCell id="qBdUKp69-ClIljfC2VET-36" style="edgeStyle=orthogonalEdgeStyle;rounded=0;orthogonalLoop=1;jettySize=auto;html=1;" edge="1" parent="mvioNwK95yMqdUQ73LqQ-36" source="qBdUKp69-ClIljfC2VET-34">
          <mxGeometry relative="1" as="geometry">
            <mxPoint x="320" y="1850" as="targetPoint" />
          </mxGeometry>
        </mxCell>
        <mxCell id="qBdUKp69-ClIljfC2VET-53" style="edgeStyle=orthogonalEdgeStyle;rounded=0;orthogonalLoop=1;jettySize=auto;html=1;" edge="1" parent="mvioNwK95yMqdUQ73LqQ-36" source="qBdUKp69-ClIljfC2VET-34">
          <mxGeometry relative="1" as="geometry">
            <mxPoint x="320" y="2760" as="targetPoint" />
            <Array as="points">
              <mxPoint x="560" y="1715" />
              <mxPoint x="560" y="2760" />
            </Array>
          </mxGeometry>
        </mxCell>
        <mxCell id="qBdUKp69-ClIljfC2VET-34" value="index &amp;gt; 0" style="rhombus;whiteSpace=wrap;html=1;" vertex="1" parent="mvioNwK95yMqdUQ73LqQ-36">
          <mxGeometry x="265" y="1660" width="110" height="110" as="geometry" />
        </mxCell>
        <mxCell id="qBdUKp69-ClIljfC2VET-39" style="edgeStyle=orthogonalEdgeStyle;rounded=0;orthogonalLoop=1;jettySize=auto;html=1;" edge="1" parent="mvioNwK95yMqdUQ73LqQ-36" source="qBdUKp69-ClIljfC2VET-37">
          <mxGeometry relative="1" as="geometry">
            <mxPoint x="320" y="2040" as="targetPoint" />
          </mxGeometry>
        </mxCell>
        <mxCell id="qBdUKp69-ClIljfC2VET-37" value="Calculate&amp;nbsp;&lt;div&gt;average salary&lt;/div&gt;&lt;div&gt;store to variable&lt;/div&gt;" style="rounded=0;whiteSpace=wrap;html=1;" vertex="1" parent="mvioNwK95yMqdUQ73LqQ-36">
          <mxGeometry x="260" y="1850" width="120" height="60" as="geometry" />
        </mxCell>
        <mxCell id="qBdUKp69-ClIljfC2VET-41" style="edgeStyle=orthogonalEdgeStyle;rounded=0;orthogonalLoop=1;jettySize=auto;html=1;" edge="1" parent="mvioNwK95yMqdUQ73LqQ-36" source="qBdUKp69-ClIljfC2VET-40">
          <mxGeometry relative="1" as="geometry">
            <mxPoint x="320" y="2190" as="targetPoint" />
          </mxGeometry>
        </mxCell>
        <mxCell id="qBdUKp69-ClIljfC2VET-40" value="Display average salary" style="shape=parallelogram;perimeter=parallelogramPerimeter;whiteSpace=wrap;html=1;fixedSize=1;" vertex="1" parent="mvioNwK95yMqdUQ73LqQ-36">
          <mxGeometry x="260" y="2040" width="120" height="60" as="geometry" />
        </mxCell>
        <mxCell id="qBdUKp69-ClIljfC2VET-43" style="edgeStyle=orthogonalEdgeStyle;rounded=0;orthogonalLoop=1;jettySize=auto;html=1;" edge="1" parent="mvioNwK95yMqdUQ73LqQ-36" source="qBdUKp69-ClIljfC2VET-42">
          <mxGeometry relative="1" as="geometry">
            <mxPoint x="320" y="2330" as="targetPoint" />
          </mxGeometry>
        </mxCell>
        <mxCell id="qBdUKp69-ClIljfC2VET-42" value="Display sum of salary" style="shape=parallelogram;perimeter=parallelogramPerimeter;whiteSpace=wrap;html=1;fixedSize=1;" vertex="1" parent="mvioNwK95yMqdUQ73LqQ-36">
          <mxGeometry x="260" y="2190" width="120" height="60" as="geometry" />
        </mxCell>
        <mxCell id="qBdUKp69-ClIljfC2VET-44" value="&quot;Most duration in this business&quot;" style="shape=parallelogram;perimeter=parallelogramPerimeter;whiteSpace=wrap;html=1;fixedSize=1;" vertex="1" parent="mvioNwK95yMqdUQ73LqQ-36">
          <mxGeometry x="195" y="2330" width="250" height="60" as="geometry" />
        </mxCell>
        <mxCell id="qBdUKp69-ClIljfC2VET-49" style="edgeStyle=orthogonalEdgeStyle;rounded=0;orthogonalLoop=1;jettySize=auto;html=1;" edge="1" parent="mvioNwK95yMqdUQ73LqQ-36" source="qBdUKp69-ClIljfC2VET-48">
          <mxGeometry relative="1" as="geometry">
            <mxPoint x="315" y="2790" as="targetPoint" />
          </mxGeometry>
        </mxCell>
        <mxCell id="qBdUKp69-ClIljfC2VET-48" value="Display salary" style="shape=parallelogram;perimeter=parallelogramPerimeter;whiteSpace=wrap;html=1;fixedSize=1;" vertex="1" parent="mvioNwK95yMqdUQ73LqQ-36">
          <mxGeometry x="255" y="2600" width="120" height="60" as="geometry" />
        </mxCell>
        <mxCell id="qBdUKp69-ClIljfC2VET-50" value="&lt;font data-font-src=&quot;https://fonts.googleapis.com/css?family=Sarabun&quot; face=&quot;Sarabun&quot;&gt;End&lt;/font&gt;" style="ellipse;whiteSpace=wrap;html=1;" vertex="1" parent="mvioNwK95yMqdUQ73LqQ-36">
          <mxGeometry x="250" y="2790" width="130" height="30" as="geometry" />
        </mxCell>
        <mxCell id="qBdUKp69-ClIljfC2VET-47" style="edgeStyle=orthogonalEdgeStyle;rounded=0;orthogonalLoop=1;jettySize=auto;html=1;" edge="1" parent="WIyWlLk6GJQsqaUBKTNV-1" source="qBdUKp69-ClIljfC2VET-46">
          <mxGeometry relative="1" as="geometry">
            <mxPoint x="-420" y="2660" as="targetPoint" />
          </mxGeometry>
        </mxCell>
        <mxCell id="qBdUKp69-ClIljfC2VET-46" value="Display name, year" style="shape=parallelogram;perimeter=parallelogramPerimeter;whiteSpace=wrap;html=1;fixedSize=1;" vertex="1" parent="WIyWlLk6GJQsqaUBKTNV-1">
          <mxGeometry x="-480" y="2510" width="120" height="60" as="geometry" />
        </mxCell>
        <mxCell id="qBdUKp69-ClIljfC2VET-45" style="edgeStyle=orthogonalEdgeStyle;rounded=0;orthogonalLoop=1;jettySize=auto;html=1;" edge="1" parent="WIyWlLk6GJQsqaUBKTNV-1" source="qBdUKp69-ClIljfC2VET-44" target="qBdUKp69-ClIljfC2VET-46">
          <mxGeometry relative="1" as="geometry">
            <mxPoint x="-420" y="2540" as="targetPoint" />
          </mxGeometry>
        </mxCell>
      </root>
    </mxGraphModel>
  </diagram>
</mxfile>
